<?xml version="1.0" standalone="no"?>
<!DOCTYPE svg PUBLIC "-//W3C//DTD SVG 20010904//EN"
 "http://www.w3.org/TR/2001/REC-SVG-20010904/DTD/svg10.dtd">
<svg version="1.0" xmlns="http://www.w3.org/2000/svg"
 width="225.000000pt" height="225.000000pt" viewBox="0 0 225.000000 225.000000"
 preserveAspectRatio="xMidYMid meet">

<g transform="translate(0.000000,225.000000) scale(0.100000,-0.100000)"
fill="#000000" stroke="none">
<path d="M1092 2160 c-61 -25 -993 -593 -1011 -617 -25 -30 -27 -73 -6 -113
21 -40 53 -60 97 -60 l38 0 0 -545 0 -545 -35 0 c-24 0 -45 -9 -67 -29 -28
-25 -33 -36 -33 -75 0 -36 6 -51 28 -73 l27 -28 995 0 995 0 27 28 c22 22 28
37 28 73 0 39 -5 50 -33 75 -22 20 -43 29 -67 29 l-35 0 0 545 0 545 38 0 c44
0 76 20 97 60 21 40 19 83 -6 114 -23 29 -990 612 -1029 620 -14 3 -36 1 -48
-4z m534 -356 c526 -316 523 -314 475 -359 -19 -17 -34 -8 -480 260 -380 229
-466 277 -496 277 -30 0 -116 -48 -496 -277 -450 -271 -460 -277 -480 -259
-48 43 -45 46 476 359 270 162 494 294 498 295 5 0 231 -133 503 -296z m-75
-136 l419 -253 0 -567 0 -568 -195 0 -195 0 0 35 0 35 148 0 c102 0 152 4 160
12 9 9 12 89 12 299 0 158 -3 294 -6 303 -5 12 -21 16 -70 16 l-64 0 0 65 c0
71 -18 126 -53 163 -37 40 -71 52 -152 52 -41 0 -75 3 -75 8 1 23 23 36 65 37
140 2 137 205 -2 205 -25 0 -30 5 -40 43 -23 85 -81 130 -170 130 -40 0 -62
-6 -92 -26 -38 -25 -81 -95 -81 -130 0 -13 -9 -17 -36 -17 -28 0 -44 -8 -70
-34 -45 -45 -47 -92 -5 -138 26 -29 35 -33 80 -32 28 0 51 -3 51 -7 0 -4 3
-14 6 -23 6 -14 -23 -16 -280 -16 -307 0 -316 -1 -363 -52 -35 -37 -53 -92
-53 -163 l0 -65 -64 0 c-49 0 -65 -4 -70 -16 -3 -9 -6 -145 -6 -303 0 -210 3
-290 12 -299 9 -9 105 -12 370 -12 l358 0 0 -35 0 -35 -405 0 -405 0 0 568 0
567 418 252 c229 139 421 253 426 253 5 0 197 -114 427 -252z m-138 -88 c15
-17 27 -37 27 -45 0 -16 -5 -15 -80 5 -14 4 -47 1 -75 -6 -27 -7 -51 -12 -52
-10 -10 10 21 59 49 76 45 28 94 21 131 -20z m-15 -120 l42 -11 0 -59 c0 -67
-23 -104 -75 -119 -78 -21 -135 32 -135 126 l0 52 43 11 c23 6 47 12 52 14 6
2 15 2 20 0 6 -2 29 -8 53 -14z m-243 -41 c14 -42 -45 -66 -61 -24 -10 25 4
45 30 45 16 0 27 -7 31 -21z m423 -11 c2 -19 -2 -28 -18 -33 -37 -12 -64 27
-38 53 21 21 53 10 56 -20z m-503 -238 c-8 -16 -15 -38 -15 -49 0 -11 -8 -32
-17 -48 -15 -27 -15 -43 -3 -183 12 -132 16 -157 34 -175 15 -14 20 -31 18
-53 -3 -32 -4 -32 -57 -32 l-54 0 -3 138 -3 137 -136 3 c-124 2 -138 1 -162
-18 -38 -30 -52 -82 -33 -120 13 -27 13 -35 0 -66 -8 -20 -12 -44 -9 -55 6
-17 1 -19 -34 -19 l-41 0 0 240 c0 199 3 246 16 271 27 52 56 58 297 59 l218
0 -16 -30z m398 21 c26 -10 67 -49 67 -63 0 -4 -92 -8 -205 -8 -113 0 -205 4
-205 8 0 14 53 60 75 65 37 9 244 7 268 -2z m152 -5 c61 -26 65 -46 65 -316
l0 -240 -55 0 -55 0 0 35 c0 21 6 37 17 43 13 8 19 37 29 123 7 63 13 136 13
162 1 43 -26 144 -50 189 -12 22 -8 22 36 4z m-67 -143 c19 -17 19 -22 6 -138
-7 -66 -13 -123 -13 -127 -1 -5 -97 -8 -215 -8 l-213 0 -6 48 c-4 26 -10 85
-13 131 -6 75 -5 85 11 97 14 11 67 14 221 14 178 0 204 -2 222 -17z m-1068
-287 c0 -136 3 -167 16 -180 13 -14 55 -16 300 -16 l284 0 0 -70 0 -70 -335 0
-335 0 0 250 0 250 35 0 35 0 0 -164z m1340 -86 l0 -250 -125 0 -125 0 0 70 0
70 74 0 c108 0 106 -3 106 196 l0 164 35 0 35 0 0 -250z m-915 140 l0 -35 -80
-3 c-44 -2 -90 -1 -101 2 -38 10 -41 60 -6 69 10 3 55 4 102 4 l85 -2 0 -35z
m3 -142 l-3 -33 -97 -3 c-90 -2 -98 -1 -108 18 -21 40 2 50 112 50 l99 0 -3
-32z m310 -180 l2 -208 -35 0 -35 0 0 203 c0 112 3 207 7 211 4 4 19 6 33 4
l25 -3 3 -207z m144 177 c-4 -32 -7 -35 -38 -35 -32 0 -34 2 -34 35 0 34 1 35
38 35 38 0 38 0 34 -35z m136 -177 l2 -208 -35 0 -35 0 0 194 c0 107 3 202 6
211 4 10 16 15 33 13 l26 -3 3 -207z m-138 2 l0 -70 -35 0 -35 0 0 70 0 70 35
0 35 0 0 -70z m0 -175 c0 -33 -2 -35 -35 -35 -33 0 -35 2 -35 35 0 33 2 35 35
35 33 0 35 -2 35 -35z m731 -121 c9 -11 10 -20 2 -32 -9 -16 -86 -17 -978 -17
-892 0 -969 1 -978 17 -8 12 -7 21 2 32 12 14 110 16 976 16 866 0 964 -2 976
-16z"/>
<path d="M1300 915 c0 -33 2 -35 35 -35 33 0 35 2 35 35 0 33 -2 35 -35 35
-33 0 -35 -2 -35 -35z"/>
</g>
</svg>
