<?xml version="1.0" standalone="no"?>
<!DOCTYPE svg PUBLIC "-//W3C//DTD SVG 20010904//EN"
 "http://www.w3.org/TR/2001/REC-SVG-20010904/DTD/svg10.dtd">
<svg version="1.0" xmlns="http://www.w3.org/2000/svg"
 width="225.000000pt" height="225.000000pt" viewBox="0 0 225.000000 225.000000"
 preserveAspectRatio="xMidYMid meet">

<g transform="translate(0.000000,225.000000) scale(0.100000,-0.100000)"
fill="#000000" stroke="none">
<path d="M224 2231 c-23 -10 -52 -34 -65 -52 l-24 -34 -3 -931 -2 -931 22 -33
c54 -78 94 -89 319 -90 175 0 205 7 197 46 -3 18 -16 19 -210 24 l-208 5 -27
28 -28 27 -3 908 c-2 886 -2 908 17 939 14 22 32 35 59 43 26 7 209 9 533 8
l494 -3 5 -130 c4 -107 9 -136 25 -165 36 -61 73 -74 220 -80 l130 -5 3 -296
c2 -262 4 -298 18 -303 41 -16 44 2 44 316 0 234 -3 306 -14 331 -18 41 -352
373 -389 387 -18 6 -210 10 -550 10 -487 0 -525 -2 -563 -19z m1273 -223 c68
-68 123 -126 123 -130 0 -5 -36 -8 -80 -8 -147 0 -180 33 -180 180 0 44 3 80
7 80 4 0 63 -55 130 -122z"/>
<path d="M366 1854 c-16 -41 3 -44 300 -44 265 0 284 1 293 18 21 39 0 42
-300 42 -256 0 -288 -2 -293 -16z"/>
<path d="M366 1624 c-17 -44 -15 -44 573 -42 l556 3 0 25 0 25 -561 3 c-512 2
-562 1 -568 -14z"/>
<path d="M371 1426 c-6 -7 -9 -21 -5 -30 6 -15 56 -16 568 -14 l561 3 0 25 0
25 -556 3 c-464 2 -558 0 -568 -12z"/>
<path d="M705 1129 c-29 -14 -318 -506 -318 -541 0 -37 12 -50 89 -88 62 -32
68 -33 111 -22 25 7 47 11 49 9 2 -2 -7 -19 -21 -37 -37 -51 -34 -103 9 -146
24 -24 43 -34 65 -34 22 0 31 -5 31 -16 0 -28 56 -74 89 -74 24 0 34 -6 41
-24 14 -39 58 -66 106 -66 34 0 46 -5 54 -21 25 -46 103 -57 157 -22 19 13 27
11 75 -16 30 -17 66 -31 79 -31 36 0 84 33 98 68 11 27 16 30 38 21 46 -17
114 16 133 67 6 15 21 23 48 28 40 6 92 52 92 80 0 9 13 13 38 12 49 -1 90 26
109 71 13 32 13 41 0 73 -13 34 -13 38 4 49 11 6 35 9 57 5 65 -10 182 65 182
116 0 35 -284 516 -317 537 -28 18 -53 13 -115 -27 -59 -37 -82 -71 -83 -124
-1 -36 -4 -41 -26 -44 -14 -2 -49 6 -78 17 -62 25 -113 26 -192 6 -51 -13 -63
-14 -86 -1 -54 27 -88 28 -149 5 -33 -12 -74 -24 -92 -26 -44 -7 -82 19 -82
55 0 43 -34 86 -94 120 -60 34 -70 36 -101 21z m75 -80 c42 -25 60 -46 60 -71
0 -22 -225 -407 -248 -425 -24 -20 -58 -15 -102 12 -37 23 -39 28 -29 48 39
73 271 457 277 457 4 0 23 -9 42 -21z m1134 -211 c76 -127 138 -236 139 -242
3 -15 -75 -56 -106 -56 -23 0 -34 10 -65 60 -101 165 -119 183 -141 142 -8
-15 2 -38 49 -117 57 -96 58 -99 39 -113 -11 -8 -26 -11 -34 -8 -8 3 -113 64
-234 136 -121 71 -222 130 -224 130 -14 0 -37 -34 -37 -53 0 -26 -37 -67 -62
-67 -16 0 -18 10 -18 90 0 114 12 129 122 155 76 18 76 18 136 -4 40 -15 77
-22 111 -20 43 2 54 -1 67 -19 18 -26 52 -29 61 -5 4 9 -5 37 -21 65 -36 64
-32 95 19 130 22 15 45 27 51 28 6 0 73 -104 148 -232z m-731 66 c3 -4 -1 -18
-10 -31 -11 -16 -18 -55 -21 -108 -6 -116 2 -151 39 -170 51 -27 114 0 162 68
11 16 30 7 237 -116 177 -104 226 -138 228 -155 4 -28 -14 -52 -39 -52 -10 0
-86 41 -170 90 -146 87 -181 101 -194 80 -15 -24 12 -49 125 -115 124 -71 147
-97 120 -130 -22 -26 -52 -17 -174 56 -92 55 -123 70 -135 62 -36 -23 -17 -46
79 -103 98 -57 117 -82 90 -116 -20 -23 -45 -17 -134 36 -93 55 -98 56 -115
36 -17 -21 -3 -45 40 -66 46 -24 60 -47 48 -78 -11 -29 -50 -29 -96 -1 -32 20
-33 23 -28 67 7 56 -19 108 -60 118 -22 5 -25 11 -25 51 0 65 -53 114 -113
104 -4 -1 -11 9 -16 21 -23 59 -89 87 -148 63 -34 -15 -38 -14 -58 5 -27 25
-85 36 -113 21 -11 -6 -23 -7 -26 -3 -3 5 41 86 97 181 89 150 104 171 122
165 49 -17 121 -15 170 5 49 20 106 27 118 15z m-402 -448 c10 -21 7 -31 -20
-69 -37 -54 -64 -66 -92 -41 -25 23 -24 29 12 86 26 39 36 48 60 48 21 0 32
-7 40 -24z m167 -8 c21 -21 13 -48 -40 -124 -54 -78 -75 -92 -108 -74 -32 17
-24 47 37 131 57 80 83 95 111 67z m134 -103 c9 -21 7 -31 -17 -67 -74 -114
-113 -146 -143 -116 -23 23 -12 56 44 132 43 59 61 76 80 76 16 0 28 -8 36
-25z m82 -146 c13 -19 13 -26 2 -48 -23 -43 -52 -64 -80 -57 -38 9 -42 41 -11
87 32 45 65 51 89 18z"/>
</g>
</svg>
