<?xml version="1.0" standalone="no"?>
<!DOCTYPE svg PUBLIC "-//W3C//DTD SVG 20010904//EN"
 "http://www.w3.org/TR/2001/REC-SVG-20010904/DTD/svg10.dtd">
<svg version="1.0" xmlns="http://www.w3.org/2000/svg"
 width="225.000000pt" height="225.000000pt" viewBox="0 0 225.000000 225.000000"
 preserveAspectRatio="xMidYMid meet">

<g transform="translate(0.000000,225.000000) scale(0.100000,-0.100000)"
fill="#000000" stroke="none">
<path d="M1070 2139 c0 -5 7 -24 16 -41 33 -64 -4 -168 -86 -242 -48 -43 -78
-44 -97 -5 -10 20 -10 34 -2 58 15 44 6 48 -39 18 -46 -30 -67 -69 -87 -168
-21 -102 -33 -128 -63 -136 -37 -9 -73 8 -99 46 -18 27 -23 48 -23 105 l-1 71
-34 -65 c-41 -81 -57 -161 -44 -219 12 -54 40 -110 68 -135 12 -11 21 -23 21
-28 0 -4 -115 -8 -255 -8 l-255 0 0 -650 0 -650 890 0 c883 0 890 0 890 20 0
20 -8 20 -867 22 l-868 3 -3 608 -2 607 995 0 995 0 -2 -607 -3 -608 -102 -3
c-95 -2 -103 -4 -103 -22 0 -19 7 -20 125 -20 l125 0 0 650 0 650 -250 0 -250
0 30 42 c40 55 64 138 56 192 -10 67 -58 157 -121 224 -31 34 -62 62 -67 62
-7 0 -8 -15 -4 -38 3 -21 1 -55 -5 -76 -14 -50 -75 -118 -103 -114 -19 3 -21
11 -27 103 -3 58 -12 115 -21 135 -24 53 -79 111 -142 149 -67 40 -186 85
-186 70z m231 -163 c65 -64 74 -89 72 -190 -2 -101 11 -140 52 -150 55 -14
147 64 162 137 8 39 17 40 42 6 77 -103 91 -208 41 -296 -47 -82 -70 -93 -190
-93 l-102 0 8 33 c13 52 6 96 -23 149 -28 51 -146 169 -202 201 -30 17 -31 17
-31 0 0 -40 -23 -97 -48 -121 -15 -13 -54 -37 -88 -52 -98 -45 -120 -92 -89
-187 7 -23 7 -23 -109 -23 l-116 0 -45 41 c-59 55 -85 110 -85 183 l0 59 38
-43 c33 -37 44 -43 88 -47 87 -9 110 17 137 147 9 41 20 86 25 100 l9 24 13
-24 c19 -36 40 -49 79 -50 90 -1 200 138 201 253 l0 48 60 -32 c34 -18 79 -50
101 -73z m-55 -327 c96 -92 123 -163 89 -230 l-16 -29 -171 2 -172 3 -23 34
c-44 66 -31 88 85 146 69 35 122 88 122 122 0 25 23 12 86 -48z"/>
<path d="M470 1205 c0 -45 -32 -108 -67 -133 -36 -25 -100 -43 -130 -36 l-23
6 0 -295 0 -295 54 -4 c89 -7 154 -68 164 -153 l5 -45 653 0 654 0 0 30 c0 92
83 170 181 170 l39 0 0 296 0 296 -23 -6 c-30 -7 -94 11 -130 36 -35 25 -67
88 -67 133 l0 35 -495 0 -495 0 0 -25 0 -25 470 0 c440 0 471 -1 476 -17 27
-92 90 -156 172 -175 l52 -13 -2 -245 -3 -245 -35 -5 c-82 -14 -152 -75 -175
-154 l-12 -41 -608 0 -608 0 -12 41 c-23 79 -93 140 -175 154 l-35 5 -3 245
-2 245 52 13 c82 19 145 83 172 175 4 14 17 17 71 17 63 0 65 1 65 25 0 25 -1
25 -90 25 l-90 0 0 -35z"/>
<path d="M700 1215 c0 -18 5 -25 20 -25 15 0 20 7 20 25 0 18 -5 25 -20 25
-15 0 -20 -7 -20 -25z"/>
<path d="M1019 1085 c-107 -34 -202 -128 -234 -232 -25 -80 -18 -192 18 -265
52 -107 142 -174 263 -198 151 -30 315 56 383 200 23 48 26 68 26 155 0 84 -4
107 -24 147 -61 124 -174 199 -309 205 -49 2 -94 -3 -123 -12z m238 -57 c61
-29 129 -96 156 -156 33 -72 31 -200 -5 -267 -57 -108 -163 -175 -279 -175
-87 0 -148 22 -209 77 -95 85 -131 206 -96 324 52 182 262 278 433 197z"/>
<path d="M1100 915 c0 -14 -4 -25 -10 -25 -22 0 -50 -45 -50 -81 0 -29 7 -43
31 -63 17 -14 41 -26 53 -26 28 0 46 -18 46 -45 0 -45 -59 -63 -82 -25 -15 24
-48 27 -48 4 0 -9 14 -29 30 -44 17 -15 30 -37 30 -49 0 -16 6 -21 25 -21 19
0 25 5 25 21 0 12 14 34 30 49 39 37 41 89 5 125 -13 14 -32 25 -42 25 -10 0
-29 7 -41 16 -28 19 -26 51 5 71 20 14 24 13 48 -11 31 -31 55 -34 55 -6 0 21
-33 60 -50 60 -5 0 -10 11 -10 25 0 20 -5 25 -25 25 -20 0 -25 -5 -25 -25z"/>
<path d="M417 810 c-33 -26 -41 -62 -23 -104 26 -61 111 -70 150 -14 57 82
-48 180 -127 118z m88 -40 c37 -41 -24 -97 -63 -58 -18 18 -15 55 6 67 25 15
37 13 57 -9z"/>
<path d="M1716 804 c-45 -46 -28 -122 31 -145 38 -14 90 6 109 43 46 88 -69
172 -140 102z m85 -24 c21 -12 25 -50 7 -68 -39 -39 -100 17 -63 58 21 23 29
24 56 10z"/>
</g>
</svg>
