<?xml version="1.0" standalone="no"?>
<!DOCTYPE svg PUBLIC "-//W3C//DTD SVG 20010904//EN"
 "http://www.w3.org/TR/2001/REC-SVG-20010904/DTD/svg10.dtd">
<svg version="1.0" xmlns="http://www.w3.org/2000/svg"
 width="225.000000pt" height="225.000000pt" viewBox="0 0 225.000000 225.000000"
 preserveAspectRatio="xMidYMid meet">

<g transform="translate(0.000000,225.000000) scale(0.100000,-0.100000)"
fill="#000000" stroke="none">
<path d="M934 2063 c-4 -14 -4 -124 0 -242 l6 -216 -52 -25 c-71 -33 -146
-104 -174 -165 -35 -73 -34 -182 2 -253 49 -98 132 -140 301 -152 87 -6 119
-12 131 -24 16 -16 15 -19 -7 -37 -20 -16 -39 -19 -125 -19 -100 0 -165 12
-240 44 -22 9 -43 13 -47 9 -8 -9 -39 -220 -39 -270 0 -36 7 -39 180 -80 l75
-18 -4 -210 c-4 -246 -6 -242 84 -230 l55 6 0 215 c0 136 4 214 10 214 6 0 10
-73 10 -199 0 -234 -1 -231 87 -212 l56 13 -7 112 c-3 61 -7 155 -7 210 l-2
98 79 38 c136 65 203 158 212 295 6 99 -10 150 -67 206 -58 59 -120 79 -243
79 -92 0 -128 10 -128 36 0 38 123 45 245 14 70 -18 114 -25 115 -17 1 1 7 64
13 139 l13 137 -46 20 c-41 18 -75 27 -164 46 l-29 6 4 207 4 207 -46 9 c-26
5 -58 6 -72 2 l-27 -6 -3 -208 -2 -207 -3 206 c-1 151 -5 209 -14 216 -12 10
-96 33 -117 33 -6 0 -14 -12 -17 -27z"/>
</g>
</svg>
